<?xml version="1.0" encoding="utf-8"?>
<!-- Generator: Circuit Diagram, cdlibrary.dll 4.0.0.0 -->
<!DOCTYPE svg PUBLIC "-//W3C//DTD SVG 1.1//EN" "http://www.w3.org/Graphics/SVG/1.1/DTD/svg11.dtd">
<svg version="1.1" width="300" height="280" xmlns="http://www.w3.org/2000/svg">
	<defs><style>text,.cls-1{fill:#888;font-family:Arial;font-size:11px;}.cls-2{stroke:#888;}.cls-3{stroke-linecap:square;stroke-width:2;}</style></defs>
	<line x1="30" y1="30" x2="210" y2="30" class="cls-2 cls-3" />
	<line x1="30" y1="30" x2="30" y2="160" class="cls-2 cls-3" />
	<line x1="30" y1="160" x2="60" y2="160" class="cls-2 cls-3" />
	<line x1="200" y1="40" x2="200" y2="140" class="cls-2 cls-3" />
	<line x1="210" y1="30" x2="210" y2="120" class="cls-2 cls-3" />
	<line x1="40" y1="40" x2="200" y2="40" class="cls-2 cls-3" />
	<line x1="40" y1="40" x2="40" y2="150" class="cls-2 cls-3" />
	<line x1="40" y1="150" x2="60" y2="150" class="cls-2 cls-3" />
	<text x="268" y="160" style="font-size:12px;text-anchor:start" dominant-baseline="middle" transform="rotate(0, 268, 160)">S</text>
	<line x1="180" y1="160" x2="257" y2="160" class="cls-2 cls-3" />
	<ellipse cx="260" cy="160" rx="3" ry="3" class="cls-2" style="fill-opacity:0;stroke-width:2" />
	<text x="268" y="120" style="font-size:12px;text-anchor:start" dominant-baseline="middle" transform="rotate(0, 268, 120)">-</text>
	<line x1="210" y1="120" x2="257" y2="120" class="cls-2 cls-3" />
	<ellipse cx="260" cy="120" rx="3" ry="3" class="cls-2" style="fill-opacity:0;stroke-width:2" />
	<text x="268" y="140" style="font-size:12px;text-anchor:start" dominant-baseline="middle" transform="rotate(0, 268, 140)">+</text>
	<line x1="200" y1="140" x2="257" y2="140" class="cls-2 cls-3" />
	<ellipse cx="260" cy="140" rx="3" ry="3" class="cls-2" style="fill-opacity:0;stroke-width:2" />
	<text x="120" y="50" style="text-anchor:middle" dominant-baseline="middle" transform="rotate(0, 120, 50)">Arduino Leonardo</text>
	<rect x="70" y="60" width="100" height="200" class="cls-2" style="fill-opacity:0;stroke-width:2" />
	<line x1="170" y1="70" x2="180" y2="70" class="cls-2 cls-3" />
	<text x="166" y="70" style="text-anchor:end" dominant-baseline="middle" transform="rotate(0, 166, 70)">SCL</text>
	<line x1="170" y1="80" x2="180" y2="80" class="cls-2 cls-3" />
	<text x="166" y="80" style="text-anchor:end" dominant-baseline="middle" transform="rotate(0, 166, 80)">SDA</text>
	<line x1="170" y1="90" x2="180" y2="90" class="cls-2 cls-3" />
	<text x="166" y="90" style="text-anchor:end" dominant-baseline="middle" transform="rotate(0, 166, 90)">AREF</text>
	<line x1="170" y1="100" x2="180" y2="100" class="cls-2 cls-3" />
	<text x="166" y="100" style="text-anchor:end" dominant-baseline="middle" transform="rotate(0, 166, 100)">GND</text>
	<line x1="60" y1="120" x2="70" y2="120" class="cls-2 cls-3" />
	<text x="74" y="120" style="text-anchor:start" dominant-baseline="middle" transform="rotate(0, 74, 120)">IOREF</text>
	<line x1="170" y1="120" x2="180" y2="120" class="cls-2 cls-3" />
	<text x="166" y="120" style="text-anchor:end" dominant-baseline="middle" transform="rotate(0, 166, 120)">D13</text>
	<line x1="60" y1="130" x2="70" y2="130" class="cls-2 cls-3" />
	<text x="74" y="130" style="text-anchor:start" dominant-baseline="middle" transform="rotate(0, 74, 130)">RST</text>
	<line x1="170" y1="130" x2="180" y2="130" class="cls-2 cls-3" />
	<text x="166" y="130" style="text-anchor:end" dominant-baseline="middle" transform="rotate(0, 166, 130)">D12</text>
	<line x1="60" y1="140" x2="70" y2="140" class="cls-2 cls-3" />
	<text x="74" y="140" style="text-anchor:start" dominant-baseline="middle" transform="rotate(0, 74, 140)">3V3</text>
	<line x1="170" y1="140" x2="180" y2="140" class="cls-2 cls-3" />
	<text x="166" y="140" style="text-anchor:end" dominant-baseline="middle" transform="rotate(0, 166, 140)">D11</text>
	<line x1="60" y1="150" x2="70" y2="150" class="cls-2 cls-3" />
	<text x="74" y="150" style="text-anchor:start" dominant-baseline="middle" transform="rotate(0, 74, 150)">5V</text>
	<line x1="170" y1="150" x2="180" y2="150" class="cls-2 cls-3" />
	<text x="166" y="150" style="text-anchor:end" dominant-baseline="middle" transform="rotate(0, 166, 150)">D10</text>
	<line x1="60" y1="160" x2="70" y2="160" class="cls-2 cls-3" />
	<text x="74" y="160" style="text-anchor:start" dominant-baseline="middle" transform="rotate(0, 74, 160)">GND</text>
	<line x1="170" y1="160" x2="180" y2="160" class="cls-2 cls-3" />
	<text x="166" y="160" style="text-anchor:end" dominant-baseline="middle" transform="rotate(0, 166, 160)">D9</text>
	<line x1="60" y1="170" x2="70" y2="170" class="cls-2 cls-3" />
	<text x="74" y="170" style="text-anchor:start" dominant-baseline="middle" transform="rotate(0, 74, 170)">GND</text>
	<line x1="170" y1="170" x2="180" y2="170" class="cls-2 cls-3" />
	<text x="166" y="170" style="text-anchor:end" dominant-baseline="middle" transform="rotate(0, 166, 170)">D8</text>
	<line x1="60" y1="180" x2="70" y2="180" class="cls-2 cls-3" />
	<text x="74" y="180" style="text-anchor:start" dominant-baseline="middle" transform="rotate(0, 74, 180)">VIN</text>
	<line x1="170" y1="180" x2="180" y2="180" class="cls-2 cls-3" />
	<text x="166" y="180" style="text-anchor:end" dominant-baseline="middle" transform="rotate(0, 166, 180)">D7</text>
	<line x1="170" y1="190" x2="180" y2="190" class="cls-2 cls-3" />
	<text x="166" y="190" style="text-anchor:end" dominant-baseline="middle" transform="rotate(0, 166, 190)">D6</text>
	<line x1="60" y1="200" x2="70" y2="200" class="cls-2 cls-3" />
	<text x="74" y="200" style="text-anchor:start" dominant-baseline="middle" transform="rotate(0, 74, 200)">A0</text>
	<line x1="170" y1="200" x2="180" y2="200" class="cls-2 cls-3" />
	<text x="166" y="200" style="text-anchor:end" dominant-baseline="middle" transform="rotate(0, 166, 200)">D5</text>
	<line x1="60" y1="210" x2="70" y2="210" class="cls-2 cls-3" />
	<text x="74" y="210" style="text-anchor:start" dominant-baseline="middle" transform="rotate(0, 74, 210)">A1</text>
	<line x1="170" y1="210" x2="180" y2="210" class="cls-2 cls-3" />
	<text x="166" y="210" style="text-anchor:end" dominant-baseline="middle" transform="rotate(0, 166, 210)">D4</text>
	<line x1="60" y1="220" x2="70" y2="220" class="cls-2 cls-3" />
	<text x="74" y="220" style="text-anchor:start" dominant-baseline="middle" transform="rotate(0, 74, 220)">A2</text>
	<line x1="170" y1="220" x2="180" y2="220" class="cls-2 cls-3" />
	<text x="166" y="220" style="text-anchor:end" dominant-baseline="middle" transform="rotate(0, 166, 220)">D3</text>
	<line x1="60" y1="230" x2="70" y2="230" class="cls-2 cls-3" />
	<text x="74" y="230" style="text-anchor:start" dominant-baseline="middle" transform="rotate(0, 74, 230)">A3</text>
	<line x1="170" y1="230" x2="180" y2="230" class="cls-2 cls-3" />
	<text x="166" y="230" style="text-anchor:end" dominant-baseline="middle" transform="rotate(0, 166, 230)">D2</text>
	<line x1="60" y1="240" x2="70" y2="240" class="cls-2 cls-3" />
	<text x="74" y="240" style="text-anchor:start" dominant-baseline="middle" transform="rotate(0, 74, 240)">A4</text>
	<line x1="170" y1="240" x2="180" y2="240" class="cls-2 cls-3" />
	<text x="166" y="240" style="text-anchor:end" dominant-baseline="middle" transform="rotate(0, 166, 240)">TX D1</text>
	<line x1="60" y1="250" x2="70" y2="250" class="cls-2 cls-3" />
	<text x="74" y="250" style="text-anchor:start" dominant-baseline="middle" transform="rotate(0, 74, 250)">A5</text>
	<line x1="170" y1="250" x2="180" y2="250" class="cls-2 cls-3" />
	<text x="166" y="250" style="text-anchor:end" dominant-baseline="middle" transform="rotate(0, 166, 250)">RX D0</text>
</svg>