<?xml version="1.0" encoding="utf-8"?>
<!-- Generator: Circuit Diagram, cdlibrary.dll 4.0.0.0 -->
<!DOCTYPE svg PUBLIC "-//W3C//DTD SVG 1.1//EN" "http://www.w3.org/Graphics/SVG/1.1/DTD/svg11.dtd">
<svg version="1.1" width="310" height="180" xmlns="http://www.w3.org/2000/svg">
	<defs><style>text,.cls-1{fill:#888;font-family:Arial;font-size:11px;}.cls-2{stroke:#888;}.cls-3{stroke-linecap:square;stroke-width:2;}</style></defs>
	<line x1="30" y1="30" x2="210" y2="30" class="cls-2 cls-3" />
	<line x1="30" y1="30" x2="30" y2="90" class="cls-2 cls-3" />
	<line x1="30" y1="90" x2="60" y2="90" class="cls-2 cls-3" />
	<line x1="200" y1="40" x2="200" y2="90" class="cls-2 cls-3" />
	<line x1="210" y1="30" x2="210" y2="80" class="cls-2 cls-3" />
	<line x1="200" y1="100" x2="200" y2="150" class="cls-2 cls-3" />
	<line x1="40" y1="40" x2="200" y2="40" class="cls-2 cls-3" />
	<line x1="40" y1="40" x2="40" y2="80" class="cls-2 cls-3" />
	<line x1="40" y1="80" x2="60" y2="80" class="cls-2 cls-3" />
	<line x1="210" y1="80" x2="220" y2="80" class="cls-2 cls-3" />
	<line x1="200" y1="90" x2="220" y2="90" class="cls-2 cls-3" />
	<line x1="200" y1="100" x2="220" y2="100" class="cls-2 cls-3" />
	<line x1="180" y1="150" x2="200" y2="150" class="cls-2 cls-3" />
	<text x="120" y="60" style="text-anchor:middle" dominant-baseline="middle">Arduino Leonardo Tiny</text>
	<rect x="70" y="70" width="100" height="90" class="cls-2" style="fill-opacity:0;stroke-width:2" />
	<line x1="60" y1="80" x2="70" y2="80" class="cls-2 cls-3" />
	<text x="74" y="80" style="text-anchor:start" dominant-baseline="middle">5V</text>
	<line x1="60" y1="90" x2="70" y2="90" class="cls-2 cls-3" />
	<text x="74" y="90" style="text-anchor:start" dominant-baseline="middle">GND</text>
	<line x1="60" y1="100" x2="70" y2="100" class="cls-2 cls-3" />
	<text x="74" y="100" style="text-anchor:start" dominant-baseline="middle">GND</text>
	<line x1="60" y1="110" x2="70" y2="110" class="cls-2 cls-3" />
	<text x="74" y="110" style="text-anchor:start" dominant-baseline="middle">VIN</text>
	<line x1="60" y1="130" x2="70" y2="130" class="cls-2 cls-3" />
	<text x="74" y="130" style="text-anchor:start" dominant-baseline="middle">A0</text>
	<line x1="60" y1="140" x2="70" y2="140" class="cls-2 cls-3" />
	<text x="74" y="140" style="text-anchor:start" dominant-baseline="middle">A1</text>
	<line x1="60" y1="150" x2="70" y2="150" class="cls-2 cls-3" />
	<text x="74" y="150" style="text-anchor:start" dominant-baseline="middle">A2</text>
	<line x1="170" y1="130" x2="180" y2="130" class="cls-2 cls-3" />
	<text x="166" y="130" style="text-anchor:end" dominant-baseline="middle">D11</text>
	<line x1="170" y1="140" x2="180" y2="140" class="cls-2 cls-3" />
	<text x="166" y="140" style="text-anchor:end" dominant-baseline="middle">D10</text>
	<line x1="170" y1="150" x2="180" y2="150" class="cls-2 cls-3" />
	<text x="166" y="150" style="text-anchor:end" dominant-baseline="middle">D9</text>
	<text x="260" y="60" style="text-anchor:middle" dominant-baseline="middle">Relay Module</text>
	<rect x="230" y="70" width="60" height="60" class="cls-2" style="fill-opacity:0;stroke-width:2" />
	<line x1="220" y1="80" x2="230" y2="80" class="cls-2 cls-3" />
	<text x="234" y="80" style="text-anchor:start" dominant-baseline="middle">-</text>
	<line x1="220" y1="90" x2="230" y2="90" class="cls-2 cls-3" />
	<text x="234" y="90" style="text-anchor:start" dominant-baseline="middle">+</text>
	<line x1="220" y1="100" x2="230" y2="100" class="cls-2 cls-3" />
	<text x="234" y="100" style="text-anchor:start" dominant-baseline="middle">S</text>
</svg>